<?xml version="1.0" encoding="utf-8"?>
<!-- Generator: Adobe Illustrator 18.1.1, SVG Export Plug-In . SVG Version: 6.00 Build 0)  -->
<svg version="1.1" id="Layer_1" xmlns="http://www.w3.org/2000/svg" xmlns:xlink="http://www.w3.org/1999/xlink" x="0px" y="0px"
	 viewBox="0 0 130 40" enable-background="new 0 0 130 40" xml:space="preserve">
<g>
	<path fill="#00053E" d="M111.2,0c-10.5,0-18.8,8.2-18.8,18.7c0,10.5,8.3,18.7,18.8,18.7c10.5,0,18.8-8.2,18.8-18.7
		C130,8.2,121.5,0,111.2,0L111.2,0L111.2,0z M111.2,32.8c-8,0-14.2-6.2-14.2-14.2s6.2-14.2,14.2-14.2c7.8,0,14.2,6.2,14.2,14.2
		S119.2,32.8,111.2,32.8L111.2,32.8L111.2,32.8z M114.6,26.7h5.5v-3h-1.5l-3.2-4.3c2-0.2,4.2-1.4,4.2-4.4c0-2.9-2.2-4.7-5.4-4.7H103
		v3.4h1.4v10H103v3h7.8v-3h-1.4v-3.7h1L114.6,26.7L114.6,26.7z M109.3,13.6h3.6c0.9,0,1.6,0.4,1.6,1.6c0,1.2-0.7,1.7-1.6,1.7h-3.6
		V13.6L109.3,13.6z"/>
	<path fill="#00053E" d="M15,28.1v-3.5h-1.7l-2.7-4.2c2.2-0.4,3.5-2.1,3.5-4.3c0-2.7-1.3-5-5-5h-9v3.5h1.4v9.9H0.2v3.5h7v-3.5H5.8
		v-3.5h0.4l3.9,7H15L15,28.1z M10,16.1c0,0.9-0.4,1.5-1.6,1.5H5.8v-3.1h2.6C9.8,14.5,10,15.2,10,16.1L10,16.1z M27.1,22.6v-3
		c0-3.4-2.5-4.4-5-4.4c-3.6,0-6.2,1.4-6.2,6.5c0,5.2,2.9,6.4,6.5,6.4c2.1,0,4.2-0.2,4.2-0.2v-3.3c0,0-1.1,0.1-3.1,0.1
		c-3.2,0-3.5-0.9-3.6-2.2H27.1L27.1,22.6z M23.3,19.8L19.9,20c0-0.9,0.2-1.9,1.8-1.9h1.6V19.8L23.3,19.8z M41.8,28.1v-3.5h-1.3v-5.5
		c0-3.2-1.9-3.8-3.9-3.8c-1.4,0-2.8,0.9-3.3,2.3V8.9h-5.4v3.5h1.4v12.2h-1.4v3.5h6.5v-3.5h-1.1v-5.7h1.9c0.8,0,1.3,0,1.3,1.2v4.5
		h-1.1v3.5H41.8L41.8,28.1z M50.9,18.9v-3.5h-2.8v-2c0-0.6,0.3-0.9,1.2-0.9c0.4,0,1.1,0,1.5,0V9c-0.3,0-1.3-0.1-1.8-0.1
		c-2.4,0-4.9,0.8-4.9,4.2v2.3h-1.4v3.5h1.4v5.7h-1.4v3.5H50v-3.5h-1.9v-5.7H50.9L50.9,18.9z M62.9,22.6v-3c0-3.4-2.5-4.4-5-4.4
		c-3.6,0-6.2,1.4-6.2,6.5c0,5.2,2.9,6.4,6.5,6.4c2.1,0,4.2-0.2,4.2-0.2v-3.3c0,0-1.1,0.1-3.1,0.1c-3.2,0-3.5-0.9-3.6-2.2H62.9
		L62.9,22.6z M59.1,19.8L55.7,20c0-0.9,0.2-1.9,1.8-1.9h1.6V19.8L59.1,19.8z M70.5,28.1v-3.5h-1.4V8.9h-5.4v3.5h1.4v12.2h-1.4v3.5
		H70.5L70.5,28.1z M84.5,28.1v-3.5h-1.7V8.9h-5.4v3.5h1.4v3.8c-0.4-0.4-1-1.1-2.2-1.1c-3.5,0-5.3,2.7-5.3,6.4c0,5.6,2.1,6.7,5.2,6.7
		c0.8,0,2.1-0.7,2.7-1.6v1.4H84.5L84.5,28.1z M78.8,24.7h-1.5c-1.9,0-1.9-1.4-1.9-3c0-2.1,0.7-3,1.8-3h1.6L78.8,24.7L78.8,24.7z"/>
</g>
<g>
	<path fill="#8A8C8E" d="M1.7,37.2v2.4H0.9v-5.9h2.3c0.6,0,1.1,0.2,1.5,0.5c0.3,0.3,0.5,0.8,0.5,1.3c0,0.5-0.2,1-0.5,1.3
		c-0.3,0.3-0.8,0.5-1.5,0.5H1.7z M1.7,36.6h1.5c0.4,0,0.7-0.1,0.9-0.3c0.2-0.2,0.3-0.5,0.3-0.8c0-0.3-0.1-0.6-0.3-0.8
		c-0.2-0.2-0.5-0.3-0.9-0.3H1.7V36.6z"/>
	<path fill="#8A8C8E" d="M8.6,39.6c0-0.1,0-0.2-0.1-0.4c0-0.1,0-0.2,0-0.3c-0.1,0.2-0.3,0.4-0.6,0.5c-0.2,0.1-0.5,0.2-0.8,0.2
		c-0.5,0-0.8-0.1-1-0.4s-0.4-0.6-0.4-1c0-0.4,0.2-0.7,0.5-1C6.6,37.1,7.1,37,7.7,37h0.9v-0.4c0-0.3-0.1-0.5-0.2-0.6
		s-0.4-0.2-0.7-0.2c-0.3,0-0.5,0.1-0.6,0.2c-0.2,0.1-0.2,0.3-0.2,0.5H6l0,0c0-0.3,0.1-0.6,0.5-0.9c0.3-0.3,0.7-0.4,1.2-0.4
		c0.5,0,0.9,0.1,1.2,0.4c0.3,0.3,0.5,0.6,0.5,1.1v2.1c0,0.2,0,0.3,0,0.5c0,0.1,0,0.3,0.1,0.4H8.6z M7.3,39c0.3,0,0.5-0.1,0.8-0.2
		c0.2-0.1,0.4-0.3,0.5-0.5v-0.7H7.6c-0.3,0-0.6,0.1-0.8,0.2c-0.2,0.2-0.3,0.4-0.3,0.6c0,0.2,0.1,0.3,0.2,0.5C6.9,38.9,7.1,39,7.3,39
		z"/>
	<path fill="#8A8C8E" d="M12.6,35.9l-0.4,0c-0.2,0-0.4,0-0.5,0.1c-0.1,0.1-0.3,0.2-0.3,0.4v3.1h-0.8v-4.4h0.7l0.1,0.6
		c0.1-0.2,0.3-0.4,0.5-0.5c0.2-0.1,0.4-0.2,0.6-0.2c0.1,0,0.1,0,0.2,0c0.1,0,0.1,0,0.1,0L12.6,35.9z"/>
	<path fill="#8A8C8E" d="M14.7,34.1v1.1h0.8v0.6h-0.8v2.7c0,0.2,0,0.3,0.1,0.4c0.1,0.1,0.2,0.1,0.3,0.1c0,0,0.1,0,0.2,0
		c0.1,0,0.1,0,0.1,0l0.1,0.5c-0.1,0-0.1,0.1-0.3,0.1c-0.1,0-0.2,0-0.3,0c-0.3,0-0.6-0.1-0.8-0.3c-0.2-0.2-0.3-0.5-0.3-0.9v-2.7h-0.7
		v-0.6h0.7v-1.1H14.7z"/>
	<path fill="#8A8C8E" d="M18.3,37.3c0-0.6,0.2-1.2,0.5-1.6c0.4-0.4,0.8-0.6,1.4-0.6c0.6,0,1.1,0.2,1.4,0.6c0.4,0.4,0.5,1,0.5,1.6
		v0.1c0,0.7-0.2,1.2-0.5,1.6c-0.4,0.4-0.8,0.6-1.4,0.6c-0.6,0-1.1-0.2-1.4-0.6C18.5,38.6,18.3,38.1,18.3,37.3L18.3,37.3z M19.1,37.4
		c0,0.5,0.1,0.8,0.3,1.1c0.2,0.3,0.5,0.5,0.9,0.5c0.4,0,0.7-0.2,0.9-0.5c0.2-0.3,0.3-0.7,0.3-1.1v-0.1c0-0.5-0.1-0.8-0.3-1.1
		s-0.5-0.5-0.9-0.5c-0.4,0-0.7,0.2-0.9,0.5S19.1,36.9,19.1,37.4L19.1,37.4z"/>
	<path fill="#8A8C8E" d="M23.5,39.6v-3.8h-0.7v-0.6h0.7v-0.6c0-0.5,0.1-0.8,0.4-1.1c0.2-0.3,0.6-0.4,1-0.4c0.1,0,0.2,0,0.3,0
		c0.1,0,0.2,0,0.3,0.1l-0.1,0.6c0,0-0.1,0-0.2,0s-0.1,0-0.2,0c-0.2,0-0.4,0.1-0.5,0.2c-0.1,0.1-0.2,0.3-0.2,0.6v0.6h0.9v0.6h-0.9
		v3.8H23.5z"/>
	<path fill="#8A8C8E" d="M29,39.6h-0.8v-5.9H29V39.6z"/>
	<path fill="#8A8C8E" d="M31.4,33.7l1.9,4.8h0l1.9-4.8h1v5.9h-0.8v-2.3l0.1-2.4l0,0l-1.9,4.7h-0.5l-1.9-4.7l0,0l0.1,2.4v2.3h-0.8
		v-5.9H31.4z"/>
	<path fill="#8A8C8E" d="M40.8,38.1c0-0.3-0.1-0.5-0.3-0.7c-0.2-0.2-0.6-0.3-1.1-0.5c-0.6-0.1-1.1-0.4-1.5-0.7
		c-0.3-0.3-0.5-0.7-0.5-1.1c0-0.5,0.2-0.8,0.6-1.2c0.4-0.3,0.9-0.5,1.5-0.5c0.6,0,1.2,0.2,1.5,0.5c0.4,0.4,0.6,0.8,0.6,1.2l0,0h-0.8
		c0-0.3-0.1-0.6-0.3-0.8c-0.2-0.2-0.6-0.3-1-0.3c-0.4,0-0.7,0.1-0.9,0.3c-0.2,0.2-0.3,0.4-0.3,0.7c0,0.3,0.1,0.5,0.3,0.6
		c0.2,0.2,0.6,0.3,1.1,0.5c0.6,0.2,1.1,0.4,1.4,0.7c0.3,0.3,0.5,0.7,0.5,1.1c0,0.5-0.2,0.9-0.6,1.1c-0.4,0.3-0.9,0.4-1.5,0.4
		c-0.6,0-1.1-0.2-1.6-0.5c-0.5-0.3-0.7-0.7-0.7-1.3l0,0H38c0,0.4,0.1,0.7,0.4,0.9c0.3,0.2,0.6,0.3,1,0.3c0.4,0,0.7-0.1,1-0.3
		C40.7,38.6,40.8,38.4,40.8,38.1z"/>
	<path fill="#8A8C8E" d="M49.3,39.6h-0.8V37h-2.9v2.6h-0.8v-5.9h0.8v2.7h2.9v-2.7h0.8V39.6z"/>
	<path fill="#8A8C8E" d="M52.3,39.6c-0.6,0-1.1-0.2-1.5-0.6c-0.4-0.4-0.5-0.9-0.5-1.6v-0.2c0-0.6,0.2-1.1,0.6-1.6
		c0.4-0.4,0.8-0.6,1.3-0.6c0.6,0,1,0.2,1.3,0.5s0.5,0.8,0.5,1.4v0.5h-2.8l0,0c0,0.4,0.1,0.8,0.3,1c0.2,0.3,0.5,0.4,0.9,0.4
		c0.3,0,0.5,0,0.7-0.1c0.2-0.1,0.4-0.2,0.5-0.3l0.3,0.5c-0.2,0.2-0.4,0.3-0.6,0.4S52.7,39.6,52.3,39.6z M52.2,35.7
		c-0.3,0-0.5,0.1-0.7,0.3c-0.2,0.2-0.3,0.5-0.3,0.8l0,0h2v-0.1c0-0.3-0.1-0.6-0.3-0.8S52.5,35.7,52.2,35.7z"/>
	<path fill="#8A8C8E" d="M57.5,39.6c0-0.1,0-0.2-0.1-0.4c0-0.1,0-0.2,0-0.3c-0.1,0.2-0.3,0.4-0.6,0.5c-0.2,0.1-0.5,0.2-0.8,0.2
		c-0.5,0-0.8-0.1-1-0.4s-0.4-0.6-0.4-1c0-0.4,0.2-0.7,0.5-1c0.3-0.2,0.8-0.4,1.4-0.4h0.9v-0.4c0-0.3-0.1-0.5-0.2-0.6
		c-0.2-0.1-0.4-0.2-0.7-0.2c-0.3,0-0.5,0.1-0.6,0.2s-0.2,0.3-0.2,0.5h-0.8l0,0c0-0.3,0.1-0.6,0.5-0.9c0.3-0.3,0.7-0.4,1.2-0.4
		c0.5,0,0.9,0.1,1.2,0.4c0.3,0.3,0.5,0.6,0.5,1.1v2.1c0,0.2,0,0.3,0,0.5c0,0.1,0,0.3,0.1,0.4H57.5z M56.2,39c0.3,0,0.5-0.1,0.8-0.2
		c0.2-0.1,0.4-0.3,0.5-0.5v-0.7h-0.9c-0.3,0-0.6,0.1-0.8,0.2c-0.2,0.2-0.3,0.4-0.3,0.6c0,0.2,0.1,0.3,0.2,0.5
		C55.8,38.9,56,39,56.2,39z"/>
	<path fill="#8A8C8E" d="M60.2,39.6h-0.8v-6.3h0.8V39.6z"/>
	<path fill="#8A8C8E" d="M62.5,34.1v1.1h0.8v0.6h-0.8v2.7c0,0.2,0,0.3,0.1,0.4c0.1,0.1,0.2,0.1,0.3,0.1c0,0,0.1,0,0.2,0
		c0.1,0,0.1,0,0.1,0l0.1,0.5c-0.1,0-0.1,0.1-0.3,0.1c-0.1,0-0.2,0-0.3,0c-0.3,0-0.6-0.1-0.8-0.3c-0.2-0.2-0.3-0.5-0.3-0.9v-2.7H61
		v-0.6h0.7v-1.1H62.5z"/>
	<path fill="#8A8C8E" d="M65,35.8c0.2-0.2,0.3-0.4,0.6-0.5c0.2-0.1,0.5-0.2,0.7-0.2c0.5,0,0.8,0.1,1.1,0.4c0.3,0.3,0.4,0.7,0.4,1.3
		v2.7H67v-2.8c0-0.4-0.1-0.6-0.2-0.8c-0.2-0.2-0.4-0.3-0.7-0.3c-0.2,0-0.4,0.1-0.6,0.2c-0.2,0.1-0.3,0.2-0.4,0.4v3.2h-0.8v-6.3H65
		V35.8z"/>
</g>
</svg>
